#!OML:ASF F:\VICON\USERDATA\INSTALL\rory3\rory3.ASF
:FULLY-SPECIFIED
:DEGREES
413
root -9.40517 11.8062 10.0277 2.10947 -40.2789 -5.05888
lowerback 34.9151 5.43586 2.81444
upperback 7.5951 7.62603 1.68893
thorax -9.03591 3.33884 -2.54814
lowerneck -26.9 -2.21124 -11.825
upperneck 27.4038 0.949722 3.01136
head 13.7742 -0.444747 3.35732
rclavicle -6.99722e-014 2.62396e-014
rhumerus 19.8013 16.2653 -80.4289
rradius 29.7484
rwrist 19.2403
rhand -50.8124 -1.64123
rfingers 7.12502
rthumb -23.3686 -30.2426
lclavicle -6.99722e-014 2.62396e-014
lhumerus -30.7173 -38.6492 90.9458
lradius 79.5949
lwrist -16.4998
lhand -50.3168 25.1449
lfingers 7.12502
lthumb -22.8931 53.806
rfemur -72.8994 -47.8705 25.8885
rtibia 121.463
rfoot -12.9971 24.5488
rtoes -15.4101
lfemur -69.5547 29.5954 -11.0412
ltibia 113.772
lfoot -12.0532 -39.9651
ltoes -7.00611
414
root -9.41374 11.9851 10.0131 2.28148 -39.724 -4.98399
lowerback 34.5646 5.26992 2.86867
upperback 7.4514 7.43875 1.57153
thorax -9.05108 3.25918 -2.6176
lowerneck -26.8644 -2.02786 -11.8029
upperneck 27.0975 1.18121 3.04734
head 13.6138 -0.322462 3.40266
rclavicle -7.63333e-014 1.51076e-014
rhumerus 19.4723 16.583 -80.3554
rradius 30.4639
rwrist 19.2518
rhand -50.5754 -1.99401
rfingers 7.12502
rthumb -23.1413 -30.6241
lclavicle -7.63333e-014 1.51076e-014
lhumerus -30.4197 -38.712 91.011
lradius 78.6722
lwrist -16.4093
lhand -49.5994 24.8763
lfingers 7.12502
lthumb -22.2045 53.6209
rfemur -71.8616 -47.3348 25.8508
rtibia 119.945
rfoot -13.0003 23.9779
rtoes -16.0159
lfemur -68.7631 28.1497 -11.0459
ltibia 112.044
lfoot -9.91005 -40.0145
ltoes -1.81644
415
root -9.42551 12.1589 9.99742 2.46459 -39.2919 -4.95899
lowerback 34.2547 5.18466 2.85842
upperback 7.31502 7.32893 1.46155
thorax -9.07776 3.21451 -2.6771
lowerneck -26.9255 -1.84729 -11.7009
upperneck 26.8796 1.41324 3.01093
head 13.5125 -0.206082 3.40869
rclavicle 9.14409e-015 1.59028e-014
rhumerus 19.0735 17.2267 -80.1633
rradius 31.3137
rwrist 18.4799
rhand -50.082 -1.57482
rfingers 7.12502
rthumb -22.6678 -30.2636
lclavicle 9.14409e-015 1.59028e-014
lhumerus -30.11 -38.7894 91.0807
lradius 77.7113
lwrist -16.1877
lhand -49.0232 24.0566
lfingers 7.12502
lthumb -21.6513 52.866
rfemur -70.7582 -46.559 25.808
rtibia 118.436
rfoot -13.0214 23.3251
rtoes -16.557
lfemur -67.8426 26.9913 -10.9795
ltibia 110.303
lfoot -8.79474 -39.9677
ltoes 0.818503
416
root -9.44161 12.3275 9.98596 2.58574 -39.0252 -4.86158
lowerback 33.9202 5.22352 2.6504
upperback 7.16531 7.31032 1.37757
thorax -9.13116 3.2139 -2.64029
lowerneck -27.0154 -1.64367 -11.5215
upperneck 26.7908 1.6764 2.8948
head 13.4711 -0.0859766 3.37964
rclavicle -4.96962e-014 1.59028e-015
rhumerus 18.6124 17.9268 -79.9902
rradius 32.1451
rwrist 17.7158
rhand -49.9686 -1.80807
rfingers 7.12502
rthumb -22.559 -30.5101
lclavicle -4.96962e-014 1.59028e-015
lhumerus -29.8479 -38.8862 91.2251
lradius 76.711
lwrist -15.9278
lhand -48.84 23.3449
lfingers 7.12502
lthumb -21.4753 52.1745
rfemur -69.6502 -45.683 25.6546
rtibia 116.94
rfoot -12.8011 22.8173
rtoes -15.9138
lfemur -66.7614 26.0937 -10.9706
ltibia 108.559
lfoot -9.44691 -39.8726
ltoes -0.584849
417
root -9.45834 12.4998 9.97998 2.77076 -38.8121 -4.94935
lowerback 33.6091 5.23319 2.582
upperback 7.00983 7.30755 1.33166
thorax -9.18669 3.21747 -2.64283
lowerneck -27.1574 -1.43662 -11.3631
upperneck 26.7492 1.97068 2.75036
head 13.459 0.0387132 3.35038
rclavicle 1.98785e-015 1.15295e-014
rhumerus 18.0577 18.6047 -79.915
rradius 33.0373
rwrist 17.321
rhand -50.3875 -3.29419
rfingers 7.12502
rthumb -22.961 -31.9468
lclavicle 1.98785e-015 1.15295e-014
lhumerus -29.5896 -38.9308 91.4177
lradius 75.5666
lwrist -15.8522
lhand -48.6539 23.356
lfingers 7.12502
lthumb -21.2966 52.2059
rfemur -68.3915 -44.8039 25.5776
rtibia 115.394
rfoot -12.6884 22.3932
rtoes -15.2251
lfemur -65.5711 25.338 -10.7965
ltibia 106.788
lfoot -10.4199 -39.7893
ltoes -2.0272
418
root -9.47566 12.6764 9.97318 2.95591 -38.5547 -4.99757
lowerback 33.2835 5.21692 2.52879
upperback 6.82599 7.27862 1.27423
thorax -9.26475 3.20835 -2.65653
lowerneck -27.1458 -1.20457 -11.283
upperneck 26.5989 2.29083 2.66121
head 13.3678 0.180359 3.35565
rclavicle 1.39149e-014 2.8625e-014
rhumerus 17.3482 18.928 -80.039
rradius 33.7014
rwrist 17.1131
rhand -50.0232 -2.07021
rfingers 7.12502
rthumb -22.6114 -30.7658
lclavicle 1.39149e-014 2.8625e-014
lhumerus -29.3997 -38.9913 91.6476
lradius 74.4221
lwrist -15.8941
lhand -47.9663 23.4475
lfingers 7.12502
lthumb -20.636 52.3705
rfemur -67.2378 -44.0647 25.5692
rtibia 113.846
rfoot -12.8911 21.8595
rtoes -16.3495
lfemur -64.4284 24.6039 -10.723
ltibia 104.969
lfoot -10.8418 -39.621
ltoes -2.49328
419
root -9.49503 12.8491 9.96228 3.0618 -38.1741 -4.93836
lowerback 32.9823 5.17784 2.42957
upperback 6.63298 7.2038 1.1873
thorax -9.36479 3.17825 -2.66287
lowerneck -27.0542 -1.01515 -11.2457
upperneck 26.4748 2.53478 2.64153
head 13.2771 0.29405 3.38109
rclavicle -2.18663e-015 4.77083e-015
rhumerus 16.5872 19.2946 -80.1546
rradius 34.4989
rwrist 16.8144
rhand -49.7777 -1.4852
rfingers 7.12502
rthumb -22.3757 -30.2094
lclavicle -2.18663e-015 4.77083e-015
lhumerus -29.1852 -39.2378 91.7866
lradius 73.2978
lwrist -15.8306
lhand -47.6522 23.528
lfingers 7.12502
lthumb -20.3342 52.4834
rfemur -66.0933 -43.5779 25.4237
rtibia 112.302
rfoot -12.9051 21.5823
rtoes -16.7271
lfemur -63.364 23.771 -10.7511
ltibia 103.144
lfoot -10.4108 -39.5264
ltoes -1.74182
420
root -9.51531 13.0217 9.9499 3.20968 -37.7507 -5.00988
lowerback 32.6622 5.09507 2.43949
upperback 6.52008 7.1029 1.09996
thorax -9.35642 3.13737 -2.7099
lowerneck -27.2488 -0.876658 -11.1508
upperneck 26.476 2.72659 2.62043
head 13.3002 0.383711 3.39494
rclavicle -9.74045e-014 3.57812e-015
rhumerus 15.9644 19.5116 -80.352
rradius 35.3307
rwrist 16.921
rhand -49.4651 -1.62653
rfingers 7.12502
rthumb -22.0756 -30.3864
lclavicle -9.74045e-014 3.57812e-015
lhumerus -28.7844 -39.4869 91.7718
lradius 72.1483
lwrist -15.7417
lhand -47.9583 23.4403
lfingers 7.12502
lthumb -20.6283 52.3641
rfemur -64.8285 -43.0449 25.3528
rtibia 110.669
rfoot -12.6937 21.3146
rtoes -16.1089
lfemur -62.3254 22.8937 -10.5865
ltibia 101.297
lfoot -8.19262 -39.7543
ltoes 3.63349
421
root -9.53578 13.2023 9.94325 3.29086 -37.4541 -5.0616
lowerback 32.3531 5.05147 2.43159
upperback 6.41485 7.04265 1.00108
thorax -9.3417 3.11536 -2.77457
lowerneck -27.3791 -0.714576 -11.0742
upperneck 26.4626 2.94058 2.62777
head 13.3018 0.486255 3.42587
rclavicle -1.38553e-013 8.62725e-014
rhumerus 15.3232 19.7753 -80.5558
rradius 36.1395
rwrist 17.1255
rhand -49.0649 -2.09644
rfingers 7.12502
rthumb -21.6913 -30.9012
lclavicle -1.38553e-013 8.62725e-014
lhumerus -28.4455 -39.5817 91.824
lradius 70.9991
lwrist -15.7954
lhand -47.6258 22.8967
lfingers 7.12502
lthumb -20.3089 51.8549
rfemur -63.3891 -42.326 25.1958
rtibia 108.938
rfoot -12.5407 20.8764
rtoes -16.0603
lfemur -61.1684 22.151 -10.4218
ltibia 99.445
lfoot -6.28755 -39.7558
ltoes 9.28631
422
root -9.55798 13.3827 9.9389 3.32308 -37.1685 -4.98119
lowerback 31.8048 5.06045 2.29393
upperback 6.68014 6.99929 0.990536
thorax -9.58661 3.09183 -2.86404
lowerneck -27.4124 -0.520394 -11.0421
upperneck 26.5092 3.18146 2.71471
head 13.3037 0.605156 3.50103
rclavicle -2.20651e-014 4.37326e-014
rhumerus 14.5327 20.243 -80.6786
rradius 37.0172
rwrist 16.7118
rhand -48.4812 -2.27679
rfingers 7.12502
rthumb -21.1307 -31.1453
lclavicle -2.20651e-014 4.37326e-014
lhumerus -28.2361 -39.744 91.9327
lradius 69.9513
lwrist -15.8532
lhand -46.5711 22.1539
lfingers 7.12502
lthumb -19.2949 51.2167
rfemur -62.0602 -41.6557 24.9526
rtibia 107.238
rfoot -12.313 20.5037
rtoes -15.5175
lfemur -60.0675 21.5672 -10.5488
ltibia 97.6467
lfoot -7.68526 -39.1747
ltoes 7.47044
423
root -9.58217 13.5568 9.93053 3.43768 -36.8112 -5.03874
lowerback 31.5722 5.04888 2.20805
upperback 6.49298 6.966 0.929117
thorax -9.6959 3.07871 -2.86505
lowerneck -27.6123 -0.337634 -10.9945
upperneck 26.6673 3.42343 2.81091
head 13.3846 0.721003 3.58448
rclavicle -3.39922e-014 -2.42517e-014
rhumerus 13.6378 20.7748 -80.7859
rradius 38.056
rwrist 15.9
rhand -47.925 -1.85194
rfingers 7.12502
rthumb -20.5963 -30.7792
lclavicle -3.39922e-014 -2.42517e-014
lhumerus -27.9764 -40.024 91.9884
lradius 68.8357
lwrist -15.8176
lhand -45.9001 21.6039
lfingers 7.12502
lthumb -18.6496 50.7299
rfemur -60.8081 -41.0834 24.9106
rtibia 105.57
rfoot -12.2014 20.1426
rtoes -14.8493
lfemur -59.0056 21.052 -10.5935
ltibia 95.8726
lfoot -10.0819 -38.3608
ltoes 3.9685
424
root -9.60575 13.7226 9.92027 3.62248 -36.3838 -5.15136
lowerback 31.3171 5.02406 2.17952
upperback 6.26518 6.94115 0.89939
thorax -9.83777 3.06774 -2.86656
lowerneck -27.7083 -0.211219 -11.0409
upperneck 26.795 3.59446 2.95772
head 13.4357 0.805689 3.68816
rclavicle -1.98785e-014 1.90833e-014
rhumerus 12.5654 21.33 -80.8934
rradius 39.2182
rwrist 14.8592
rhand -47.5733 -1.19587
rfingers 7.12502
rthumb -20.2584 -30.1594
lclavicle -1.98785e-014 1.90833e-014
lhumerus -27.7384 -40.4525 92.1547
lradius 67.6027
lwrist -15.8374
lhand -45.4812 21.463
lfingers 7.12502
lthumb -18.2467 50.6272
rfemur -59.6586 -40.5634 24.9966
rtibia 103.92
rfoot -12.2985 19.6796
rtoes -14.773
lfemur -58.0056 20.4841 -10.5685
ltibia 94.0646
lfoot -10.8956 -37.8115
ltoes 4.635
425
root -9.62759 13.8853 9.91316 3.80553 -35.9029 -5.17876
lowerback 30.911 4.97485 2.15704
upperback 6.07993 6.88 0.845266
thorax -9.85433 3.04553 -2.86972
lowerneck -27.8073 -0.0954033 -11.0543
upperneck 26.8629 3.75885 3.03016
head 13.4658 0.882838 3.75363
rclavicle 4.92986e-014 -3.51849e-014
rhumerus 11.5494 21.9677 -80.9691
rradius 40.3961
rwrist 13.6153
rhand -47.3172 -0.839625
rfingers 7.12502
rthumb -20.0122 -29.8291
lclavicle 4.92986e-014 -3.51849e-014
lhumerus -27.4421 -40.8688 92.32
lradius 66.3986
lwrist -15.9714
lhand -45.0132 21.2889
lfingers 7.12502
lthumb -17.7963 50.4946
rfemur -58.6218 -40.0913 25.0609
rtibia 102.286
rfoot -12.4712 19.191
rtoes -15.5359
lfemur -57.0919 19.8642 -10.6494
ltibia 92.2201
lfoot -10.9064 -37.3735
ltoes 5.55601
426
root -9.64778 14.0514 9.90945 3.87312 -35.41 -5.07409
lowerback 30.4686 4.90611 2.08453
upperback 5.97096 6.76675 0.744881
thorax -9.76608 3.00364 -2.86962
lowerneck -28.0953 0.055279 -10.9027
upperneck 27.0323 3.9746 2.96517
head 13.5794 0.972318 3.75459
rclavicle 4.06515e-014 7.7526e-015
rhumerus 10.6713 22.5556 -81.0787
rradius 41.5679
rwrist 12.6389
rhand -46.957 -0.740757
rfingers 7.12502
rthumb -19.6659 -29.766
lclavicle 4.06515e-014 7.7526e-015
lhumerus -27.063 -41.2406 92.3835
lradius 65.2237
lwrist -15.973
lhand -44.6097 20.704
lfingers 7.12502
lthumb -17.408 49.9445
rfemur -57.506 -39.6798 24.9347
rtibia 100.643
rfoot -12.555 18.8807
rtoes -15.8757
lfemur -56.1123 19.215 -10.8602
ltibia 90.3126
lfoot -10.9492 -36.8675
ltoes 5.491
